<svg xmlns="http://www.w3.org/2000/svg" viewBox="0 0 473.14 54.55"><defs><style>.cls-1{fill:#1c2b45;}.cls-2{fill:#71b8fa;}.cls-3{fill:#4de8e8;}.cls-4{fill:#5e5cc2;}</style></defs><g id="Layer_2" data-name="Layer 2"><g id="Layer_1-2" data-name="Layer 1"><path class="cls-1" d="M102.44,4.15Q93,4.15,88.45,9t-4.53,14.4q0,10,4.78,14.54t13.74,4.59a28.26,28.26,0,0,0,4.18-.33,33.36,33.36,0,0,0,4.23-.91A17,17,0,0,0,114.31,40v-9.4a23.13,23.13,0,0,1-5.55,2.88,13.74,13.74,0,0,1-4.23.86,11.93,11.93,0,0,1-5-.94,6.42,6.42,0,0,1-3.16-3.3A16,16,0,0,1,95.3,23.5a16.78,16.78,0,0,1,1.07-6.73,6.57,6.57,0,0,1,3-3.38,9.89,9.89,0,0,1,4.59-1,15.05,15.05,0,0,1,4.7.87,23.21,23.21,0,0,1,5.63,3V6.84a32.8,32.8,0,0,0-5.91-2A25.87,25.87,0,0,0,102.44,4.15Z"/><path class="cls-1" d="M140,14.13a20.2,20.2,0,0,0-8.11-1.46q-7.3,0-11,3.35t-3.71,11.55q0,7.53,3.71,11.26t11,3.74q7.2,0,11.05-3.74t3.85-11.26a18.76,18.76,0,0,0-1.73-8.72A10.23,10.23,0,0,0,140,14.13Zm-3.74,17.56A4.76,4.76,0,0,1,134.5,34a4.65,4.65,0,0,1-2.62.75,4.24,4.24,0,0,1-3.6-1.65q-1.23-1.65-1.23-5.55A14.3,14.3,0,0,1,127.6,23a3.48,3.48,0,0,1,1.65-2.09,5.9,5.9,0,0,1,2.63-.54,6,6,0,0,1,2.62.54A3.8,3.8,0,0,1,136.25,23a12.65,12.65,0,0,1,.64,4.57A11.34,11.34,0,0,1,136.25,31.69Z"/><path class="cls-1" d="M172.45,13.74a21.52,21.52,0,0,0-6.38-.85,29.64,29.64,0,0,0-4.17.33c-1.54.22-3.07.49-4.59.82s-2.89.69-4.1,1.08a17.4,17.4,0,0,0-2.75,1.07V41.75h10V21.9a2.32,2.32,0,0,1,1.18-.57,7.23,7.23,0,0,1,2.06-.3,8.21,8.21,0,0,1,1.95.21,3.74,3.74,0,0,1,1.43.69A3,3,0,0,1,168,23.2a5.35,5.35,0,0,1,.3,1.89V41.75h10V22.67a10,10,0,0,0-1.54-6A8.13,8.13,0,0,0,172.45,13.74Z"/><path class="cls-1" d="M195.31,6.18H184.76v7.59H181v7.42h3.74V33.67a9.25,9.25,0,0,0,2.56,7q2.55,2.48,8.21,2.47a14.33,14.33,0,0,0,2.72-.27A9.66,9.66,0,0,0,201,41.8V33.39a5.68,5.68,0,0,1-1.7,1,4.9,4.9,0,0,1-1.76.39,2.51,2.51,0,0,1-1.68-.5,1.93,1.93,0,0,1-.58-1.54V21.19H201V13.77h-5.72Z"/><path class="cls-1" d="M229.75,20.61a11.56,11.56,0,0,0-4.31-6,13.24,13.24,0,0,0-7.59-2q-7.14,0-10.91,4.15t-3.76,11.51a14.64,14.64,0,0,0,1.87,7.51,12.7,12.7,0,0,0,5.22,5A16.33,16.33,0,0,0,218,42.57a27.25,27.25,0,0,0,5.89-.55,33.86,33.86,0,0,0,4.39-1.26v-8.3c-.55.14-1.24.37-2.09.68s-1.74.6-2.69.86a11,11,0,0,1-2.8.38q-4.12,0-5.83-1.92a6.19,6.19,0,0,1-1.1-1.93H231.1A29.18,29.18,0,0,0,229.75,20.61Zm-14.42.11a3.55,3.55,0,0,1,2-.68,3.25,3.25,0,0,1,3.16,1.73,8.9,8.9,0,0,1,.75,2.88h-8a8.53,8.53,0,0,1,.45-1.73A4.69,4.69,0,0,1,215.33,20.72Z"/><path class="cls-1" d="M256.52,13.74a21.57,21.57,0,0,0-6.38-.85,29.77,29.77,0,0,0-4.18.33c-1.54.22-3.07.49-4.59.82s-2.88.69-4.09,1.08a17,17,0,0,0-2.75,1.07V41.75h10V21.9a2.37,2.37,0,0,1,1.18-.57,7.3,7.3,0,0,1,2.07-.3,8.21,8.21,0,0,1,1.95.21,3.89,3.89,0,0,1,1.43.69A3,3,0,0,1,252,23.2a5.35,5.35,0,0,1,.3,1.89V41.75h10V22.67a10,10,0,0,0-1.54-6A8.06,8.06,0,0,0,256.52,13.74Z"/><path class="cls-1" d="M279.81,6.18H269.26v7.59h-3.74v7.42h3.74V33.67a9.25,9.25,0,0,0,2.56,7q2.55,2.48,8.21,2.47a14.33,14.33,0,0,0,2.72-.27,9.66,9.66,0,0,0,2.78-1.05V33.39a5.68,5.68,0,0,1-1.7,1,4.9,4.9,0,0,1-1.76.39,2.51,2.51,0,0,1-1.68-.5,1.93,1.93,0,0,1-.58-1.54V21.19h5.72V13.77h-5.72Z"/><path class="cls-1" d="M329.28,8q-3.84-2.91-10.39-2.91h-18V41.75h11V30.59h7q6.54,0,10.39-3.46t3.85-9.84Q333.13,10.92,329.28,8Zm-8.44,12a4.26,4.26,0,0,1-.79,1.35,3,3,0,0,1-1.16.8,4,4,0,0,1-1.37.24h-5.61v-9h5.61a3.6,3.6,0,0,1,1.37.27,3.07,3.07,0,0,1,1.16.88,4.79,4.79,0,0,1,.79,1.49,6.37,6.37,0,0,1,.31,2.14A5,5,0,0,1,320.84,20Z"/><polygon class="cls-1" points="336.45 14.32 336.45 41.75 346.56 41.75 346.45 14.32 336.45 14.32"/><rect class="cls-1" x="336.34" y="3.27" width="10.22" height="7.2"/><path class="cls-1" d="M373.27,13.8a19.33,19.33,0,0,0-6.51-1,30.8,30.8,0,0,0-7.26.77,12.78,12.78,0,0,0-5.25,2.56A10.92,10.92,0,0,0,351.06,21,23.63,23.63,0,0,0,350,28.66a16.66,16.66,0,0,0,1.54,7.7,10.37,10.37,0,0,0,4.26,4.45,15.39,15.39,0,0,0,6.29,1.76,11.69,11.69,0,0,0,4.07-.6,7.16,7.16,0,0,0,2.67-1.74,1.83,1.83,0,0,0,.13-.16V41.2a6.41,6.41,0,0,1-.55,2.8,3.86,3.86,0,0,1-1.78,1.79,7.43,7.43,0,0,1-3.33.63A23.09,23.09,0,0,1,358.9,46a29.38,29.38,0,0,1-4-1.07,19,19,0,0,1-2.62-1.08v8.74A12.39,12.39,0,0,0,356.5,54a38.27,38.27,0,0,0,7.07.55,24.23,24.23,0,0,0,6-.71,13.62,13.62,0,0,0,4.81-2.26,10.14,10.14,0,0,0,3.19-3.95,13.89,13.89,0,0,0,1.13-5.88V20.64a6.41,6.41,0,0,0-1.4-4.15A9.06,9.06,0,0,0,373.27,13.8Zm-6,21.32a8.14,8.14,0,0,1-2.17.25,4.62,4.62,0,0,1-3.63-1.95,8.35,8.35,0,0,1-1.6-5.41,12.44,12.44,0,0,1,.58-4,4.73,4.73,0,0,1,4.87-3.44,7.39,7.39,0,0,1,1.7.2,3.1,3.1,0,0,1,1.37.68A2,2,0,0,1,369,23V34.44A7,7,0,0,1,367.28,35.12Z"/><path class="cls-1" d="M408.47,20.61a11.56,11.56,0,0,0-4.31-6,13.24,13.24,0,0,0-7.59-2q-7.14,0-10.91,4.15T381.9,28.33a14.64,14.64,0,0,0,1.87,7.51,12.7,12.7,0,0,0,5.22,5,16.33,16.33,0,0,0,7.69,1.76,27.15,27.15,0,0,0,5.88-.55,33.58,33.58,0,0,0,4.4-1.26v-8.3c-.55.14-1.24.37-2.09.68s-1.74.6-2.69.86a11,11,0,0,1-2.8.38q-4.12,0-5.83-1.92a6,6,0,0,1-1.1-1.93h17.37A29.18,29.18,0,0,0,408.47,20.61ZM394,20.72a3.58,3.58,0,0,1,2-.68,3.26,3.26,0,0,1,3.16,1.73,8.9,8.9,0,0,1,.75,2.88h-8a8.53,8.53,0,0,1,.45-1.73A4.75,4.75,0,0,1,394,20.72Z"/><path class="cls-1" d="M434.86,14.13a20.2,20.2,0,0,0-8.11-1.46q-7.31,0-11,3.35T412,27.57q0,7.53,3.71,11.26t11,3.74q7.2,0,11.05-3.74t3.85-11.26a18.76,18.76,0,0,0-1.73-8.72A10.23,10.23,0,0,0,434.86,14.13Zm-3.74,17.56A4.78,4.78,0,0,1,429.36,34a4.6,4.6,0,0,1-2.61.75,4.24,4.24,0,0,1-3.6-1.65q-1.23-1.65-1.23-5.55a14.3,14.3,0,0,1,.55-4.57,3.48,3.48,0,0,1,1.65-2.09,5.9,5.9,0,0,1,2.63-.54,6,6,0,0,1,2.61.54A3.81,3.81,0,0,1,431.12,23a12.65,12.65,0,0,1,.64,4.57A11.34,11.34,0,0,1,431.12,31.69Z"/><path class="cls-1" d="M471.61,16.71a8.13,8.13,0,0,0-4.29-3,21.52,21.52,0,0,0-6.38-.85,29.89,29.89,0,0,0-4.18.33c-1.53.22-3.06.49-4.58.82s-2.89.69-4.1,1.08a17.4,17.4,0,0,0-2.75,1.07V41.75h10V21.9a2.32,2.32,0,0,1,1.18-.57,7.23,7.23,0,0,1,2.06-.3,8.21,8.21,0,0,1,1.95.21,3.81,3.81,0,0,1,1.43.69,3,3,0,0,1,.88,1.27,5.35,5.35,0,0,1,.3,1.89V41.75h10V22.67A10,10,0,0,0,471.61,16.71Z"/><path class="cls-1" d="M61.29,19.9v2.56A19.28,19.28,0,0,1,42,41.74H26.62L39.87,28.49l2.84-2.85,8.54-8.53L48.47,19.9Z"/><polygon class="cls-2" points="34.18 34.18 26.62 41.74 20.95 47.41 7.64 47.41 27.53 27.53 34.08 34.08 34.18 34.18"/><path class="cls-3" d="M54.44,9.85a9.76,9.76,0,0,1-1.92,5.84,10.38,10.38,0,0,1-1.07,1.22h0c-.06.07-.13.13-.19.19h0l-8.54,8.53-2.84,2.85L36.2,32.15l-2,2-.1-.1-6.55-6.55L0,0H44.6A9.85,9.85,0,0,1,54.44,9.85Z"/><path class="cls-4" d="M69.84,19.9H48.47l2.78-2.79.2-.2L54.39,14a6.72,6.72,0,0,1,9.52,0Z"/></g></g></svg>