<svg width="165" height="19" viewBox="0 0 165 19" fill="none" xmlns="http://www.w3.org/2000/svg">
<g clip-path="url(#clip0)">
<path d="M35.7242 1.44531C33.5295 1.44531 31.9032 2.0084 30.8454 3.13459C29.7876 4.26077 29.261 5.93263 29.2657 8.15017C29.2657 10.4722 29.8213 12.1603 30.9326 13.2145C32.0439 14.2687 33.6411 14.8016 35.7242 14.8132C36.2123 14.811 36.6995 14.7726 37.1819 14.6983C37.68 14.6246 38.1727 14.5188 38.6571 14.3813C39.0744 14.2758 39.479 14.1251 39.8637 13.932V10.658C39.267 11.0783 38.6159 11.4157 37.9282 11.6611C37.4554 11.8379 36.9575 11.939 36.4531 11.9606C35.855 11.978 35.2603 11.8663 34.7094 11.6332C34.2134 11.398 33.8212 10.9889 33.6074 10.4838C33.3223 9.75234 33.1952 8.96897 33.2343 8.185C33.1968 7.38637 33.3238 6.58856 33.6074 5.84091C33.8058 5.33727 34.1764 4.92016 34.6536 4.66364C35.1514 4.42083 35.7005 4.30136 36.2543 4.31534C36.8133 4.3285 37.3666 4.4308 37.8933 4.61837C38.5928 4.87475 39.2535 5.22638 39.8567 5.66328V2.38225C39.1934 2.08517 38.5033 1.85191 37.7957 1.68564C37.1168 1.52583 36.4217 1.44518 35.7242 1.44531Z" fill="white"/>
<path d="M48.8229 4.9213C47.9251 4.5595 46.9623 4.38639 45.9946 4.41278C44.2974 4.41278 43.0188 4.80172 42.1585 5.5796C41.2983 6.35748 40.8671 7.69845 40.8647 9.60251C40.8647 11.351 41.296 12.6583 42.1585 13.5244C43.0211 14.3905 44.2998 14.8248 45.9946 14.8271C47.6685 14.8271 48.953 14.3929 49.8481 13.5244C50.7432 12.656 51.1908 11.3487 51.1908 9.60251C51.2362 8.55645 51.0293 7.5148 50.5874 6.5653C50.2083 5.82922 49.5844 5.24795 48.8229 4.9213ZM47.5186 11.0375C47.4029 11.363 47.1883 11.6443 46.9048 11.8421C46.6332 12.0184 46.315 12.1094 45.9911 12.1033C45.7508 12.1168 45.5109 12.0715 45.2921 11.9714C45.0733 11.8712 44.8823 11.7192 44.7357 11.5286C44.4497 11.1455 44.3068 10.5011 44.3068 9.59555C44.285 9.06042 44.3497 8.52529 44.4986 8.01076C44.5861 7.70151 44.7931 7.43967 45.074 7.2828C45.3612 7.15054 45.675 7.08618 45.9911 7.09472C46.306 7.08794 46.6183 7.15224 46.9048 7.2828C47.1914 7.44172 47.4088 7.70108 47.5151 8.01076C47.6866 8.52319 47.7622 9.06275 47.7383 9.60251C47.7533 10.0905 47.6777 10.5771 47.5151 11.0375H47.5186Z" fill="white"/>
<path d="M60.1391 4.78551C59.4165 4.57598 58.6665 4.47618 57.9142 4.48945C57.4274 4.49351 56.9414 4.53192 56.46 4.60439C55.9229 4.68102 55.3894 4.77506 54.8593 4.89C54.3292 5.00494 53.8514 5.13033 53.4295 5.26617C53.0998 5.36305 52.779 5.48773 52.4705 5.63885V14.5415H55.9578V7.62767C56.073 7.52337 56.2159 7.45444 56.3693 7.42914C56.6025 7.35988 56.8444 7.32468 57.0877 7.32465C57.3165 7.3218 57.5448 7.34636 57.7677 7.39779C57.9493 7.44133 58.1193 7.52329 58.2664 7.63812C58.4107 7.75455 58.5215 7.90721 58.5873 8.08047C58.6615 8.29184 58.6969 8.51483 58.6919 8.73876V14.5415H62.1792V7.89587C62.2262 7.16004 62.0381 6.42832 61.6422 5.80604C61.2668 5.31035 60.7387 4.95174 60.1391 4.78551Z" fill="white"/>
<path d="M68.1112 2.15234H64.4321V4.79597H63.1208V7.38039H64.4251V11.7272C64.3965 12.1732 64.461 12.6203 64.6147 13.0401C64.7684 13.4598 65.0079 13.843 65.3179 14.1654C65.9107 14.7412 66.8651 15.028 68.181 15.0257C68.4994 15.0246 68.8171 14.9931 69.1295 14.9316C69.4688 14.8579 69.7947 14.7322 70.0955 14.5589V11.6297C69.9198 11.7794 69.7191 11.8973 69.5027 11.978C69.3083 12.0608 69.1002 12.1069 68.8889 12.1138C68.679 12.128 68.471 12.0662 68.303 11.9397C68.2318 11.8707 68.1768 11.7868 68.1418 11.6941C68.1068 11.6014 68.0928 11.5021 68.1008 11.4033V7.38039H70.0955V4.79597H68.1008L68.1112 2.15234Z" fill="white"/>
<path d="M80.1215 7.17845C79.8629 6.3364 79.3349 5.60229 78.6185 5.08863C77.827 4.59455 76.9041 4.35167 75.9716 4.39202C74.3116 4.39202 73.0434 4.87384 72.1669 5.83748C71.2904 6.80112 70.8533 8.13745 70.8557 9.84646C70.8342 10.761 71.0594 11.6645 71.5078 12.4622C71.9329 13.2066 72.5653 13.8116 73.3282 14.2037C74.1618 14.6298 75.0877 14.8439 76.0239 14.8272C76.7135 14.838 77.4022 14.7738 78.0779 14.6356C78.5976 14.5239 79.109 14.3773 79.6089 14.1968V11.3059C79.4171 11.3546 79.1765 11.4347 78.88 11.5427C78.5836 11.6507 78.2732 11.7517 77.9419 11.8422C77.6235 11.9281 77.2953 11.9726 76.9655 11.9746C76.0076 11.9746 75.3299 11.7517 74.9324 11.3059C74.7649 11.1067 74.635 10.879 74.5488 10.6336H80.5923C80.6359 9.46342 80.4766 8.29449 80.1215 7.17845ZM75.0928 7.21676C75.2958 7.06896 75.5391 6.98635 75.7902 6.97992C76.013 6.96062 76.2364 7.00753 76.4325 7.11474C76.6286 7.22196 76.7885 7.3847 76.8922 7.58248C77.0352 7.89982 77.1236 8.23894 77.1538 8.5856H74.3639C74.395 8.37981 74.4476 8.17785 74.5209 7.98303C74.6307 7.67638 74.8299 7.40953 75.0928 7.21676Z" fill="white"/>
<path d="M89.4572 4.78595C88.7346 4.57669 87.9846 4.47689 87.2323 4.48989C86.7443 4.49394 86.2572 4.53235 85.7746 4.60484C85.2376 4.68146 84.704 4.7755 84.1739 4.89044C83.6438 5.00539 83.1696 5.13077 82.7476 5.26661C82.4177 5.36284 82.0968 5.48754 81.7886 5.6393V14.542H85.2759V7.62812C85.3917 7.52463 85.5343 7.45582 85.6874 7.42958C85.9218 7.36033 86.1649 7.32513 86.4093 7.32509C86.6381 7.32225 86.8664 7.3468 87.0893 7.39824C87.2703 7.44325 87.4401 7.52507 87.588 7.63857C87.7221 7.7584 87.823 7.91076 87.881 8.08091C87.9552 8.29228 87.9906 8.51528 87.9856 8.73921V14.542H91.4729V7.89631C91.5199 7.16049 91.3318 6.42876 90.9359 5.80649C90.5681 5.31385 90.0487 4.95533 89.4572 4.78595Z" fill="white"/>
<path d="M97.5794 2.15234H93.9002V4.79597H92.5959V7.38039H93.9002V11.7272C93.8716 12.1732 93.9361 12.6203 94.0898 13.0401C94.2435 13.4598 94.483 13.843 94.793 14.1654C95.3858 14.7412 96.3402 15.028 97.6561 15.0257C97.9745 15.0246 98.2922 14.9931 98.6046 14.9316C98.9447 14.8604 99.2718 14.737 99.5741 14.5659V11.6297C99.3983 11.7794 99.1977 11.8973 98.9813 11.978C98.7868 12.0608 98.5787 12.1069 98.3675 12.1138C98.1576 12.128 97.9496 12.0662 97.7816 11.9397C97.7104 11.8707 97.6553 11.7868 97.6204 11.6941C97.5854 11.6014 97.5714 11.5021 97.5794 11.4033V7.38039H99.5741V4.79597H97.5794V2.15234Z" fill="white"/>
<path d="M114.831 2.78651C113.938 2.1108 112.731 1.77295 111.208 1.77295H104.931V14.5418H108.767V10.6547H111.208C112.728 10.6547 113.936 10.253 114.831 9.44958C115.726 8.64615 116.174 7.50372 116.174 6.02226C116.174 4.54313 115.726 3.46455 114.831 2.78651ZM111.888 6.96617C111.826 7.13854 111.733 7.29797 111.612 7.43638C111.502 7.56002 111.363 7.65553 111.208 7.71502C111.055 7.77054 110.893 7.79883 110.73 7.79861H108.774V4.66388H110.73C110.894 4.66378 111.056 4.69573 111.208 4.75792C111.365 4.82621 111.504 4.93133 111.612 5.06442C111.734 5.21978 111.828 5.3955 111.888 5.5834C111.966 5.82389 112.003 6.07597 111.996 6.32877C112 6.54611 111.963 6.7623 111.888 6.96617Z" fill="white"/>
<path d="M117.332 4.98779V14.5418H120.857L120.819 4.98779H117.332Z" fill="white"/>
<path d="M120.857 1.13916H117.293V3.64695H120.857V1.13916Z" fill="white"/>
<path d="M130.172 4.80652C129.441 4.56156 128.673 4.44375 127.902 4.45822C127.05 4.44705 126.2 4.53708 125.37 4.72641C124.699 4.87849 124.072 5.18368 123.539 5.61807C123.021 6.07252 122.637 6.65877 122.427 7.31431C122.158 8.17734 122.033 9.07875 122.057 9.98232C122.02 10.9063 122.204 11.8258 122.594 12.6643C122.921 13.3193 123.439 13.8598 124.08 14.2142C124.759 14.573 125.507 14.782 126.273 14.8272C126.755 14.8419 127.236 14.7712 127.693 14.6183C128.045 14.4887 128.363 14.2815 128.624 14.0122C128.64 13.9945 128.655 13.9759 128.669 13.9565V14.3501C128.679 14.6854 128.614 15.0188 128.477 15.3253C128.346 15.5967 128.127 15.8163 127.856 15.9488C127.491 16.1103 127.094 16.1854 126.695 16.1682C126.18 16.1686 125.666 16.1196 125.161 16.0219C124.688 15.9306 124.221 15.8061 123.766 15.6492C123.452 15.5467 123.147 15.421 122.852 15.2731V18.3172C123.309 18.5683 123.808 18.7347 124.324 18.8084C125.138 18.9483 125.963 19.0124 126.789 18.9999C127.494 19.005 128.197 18.9219 128.882 18.7526C129.487 18.6028 130.057 18.3353 130.559 17.9655C131.041 17.6085 131.424 17.1351 131.672 16.5897C131.95 15.9437 132.085 15.2448 132.066 14.5416V7.18892C132.078 6.66479 131.905 6.15308 131.577 5.74346C131.203 5.30951 130.717 4.98561 130.172 4.80652ZM128.08 12.2324C127.832 12.2952 127.578 12.3245 127.323 12.3194C127.074 12.3118 126.83 12.2465 126.61 12.1286C126.39 12.0108 126.201 11.8436 126.057 11.6403C125.658 11.0958 125.46 10.4297 125.499 9.75593C125.49 9.28361 125.558 8.813 125.701 8.36271C125.804 7.99866 126.028 7.68087 126.338 7.4627C126.647 7.24453 127.022 7.13925 127.4 7.16454C127.599 7.16475 127.798 7.18813 127.992 7.2342C128.169 7.27206 128.333 7.35349 128.47 7.47105C128.542 7.54048 128.599 7.62465 128.636 7.71781C128.672 7.81098 128.688 7.91095 128.683 8.01092V11.9955C128.494 12.1006 128.293 12.1803 128.083 12.2324H128.08Z" fill="white"/>
<path d="M142.447 7.17845C142.189 6.3364 141.661 5.60229 140.944 5.08863C140.153 4.59455 139.23 4.35167 138.298 4.39202C136.638 4.39202 135.369 4.87384 134.493 5.83748C133.616 6.80112 133.179 8.14442 133.182 9.86736C133.16 10.7819 133.385 11.6854 133.834 12.4831C134.259 13.2275 134.891 13.8325 135.654 14.2246C136.484 14.6448 137.405 14.8553 138.336 14.8377C139.024 14.8485 139.712 14.7842 140.386 14.6461C140.907 14.5348 141.42 14.3882 141.921 14.2072V11.3163C141.729 11.3651 141.488 11.4452 141.192 11.5532C140.896 11.6611 140.585 11.7621 140.254 11.8527C139.935 11.9386 139.607 11.983 139.277 11.9851C138.32 11.9851 137.642 11.7621 137.244 11.3163C137.076 11.118 136.946 10.8901 136.861 10.6441H142.918C142.963 9.47038 142.804 8.29781 142.447 7.17845ZM137.401 7.21676C137.605 7.06955 137.848 6.987 138.099 6.97992C138.321 6.96108 138.545 7.00819 138.741 7.11536C138.937 7.22252 139.097 7.385 139.201 7.58248C139.344 7.89983 139.432 8.23894 139.462 8.5856H136.672C136.703 8.37981 136.756 8.17785 136.829 7.98303C136.94 7.67698 137.139 7.41043 137.401 7.21676Z" fill="white"/>
<path d="M151.65 4.9213C150.753 4.5595 149.79 4.38639 148.822 4.41278C147.123 4.41278 145.844 4.80172 144.986 5.5796C144.128 6.35748 143.692 7.69845 143.678 9.60251C143.678 11.351 144.11 12.6583 144.972 13.5244C145.835 14.3905 147.113 14.8248 148.808 14.8271C150.482 14.8271 151.767 14.3929 152.662 13.5244C153.557 12.656 154.004 11.3487 154.004 9.60251C154.05 8.55645 153.843 7.5148 153.401 6.5653C153.025 5.8316 152.407 5.25062 151.65 4.9213ZM150.346 11.0375C150.23 11.3628 150.016 11.644 149.732 11.8421C149.462 12.0187 149.145 12.1097 148.822 12.1033C148.582 12.1168 148.342 12.0715 148.123 11.9714C147.904 11.8712 147.713 11.7192 147.567 11.5286C147.281 11.1455 147.138 10.5011 147.138 9.59555C147.115 9.0581 147.18 8.52055 147.33 8.00379C147.417 7.69455 147.624 7.43271 147.905 7.27584C148.192 7.14358 148.506 7.07922 148.822 7.08775C149.136 7.0815 149.447 7.14578 149.732 7.27584C150.021 7.43604 150.24 7.69807 150.346 8.01076C150.518 8.52319 150.593 9.06275 150.569 9.60251C150.584 10.0905 150.509 10.5771 150.346 11.0375Z" fill="white"/>
<path d="M164.466 5.82017C164.097 5.31665 163.571 4.94929 162.97 4.77525C162.248 4.56573 161.498 4.46593 160.745 4.4792C160.258 4.48338 159.77 4.52179 159.288 4.59414C158.754 4.67076 158.221 4.76481 157.691 4.87975C157.161 4.99469 156.683 5.12008 156.261 5.25591C155.931 5.3528 155.61 5.47747 155.302 5.6286V14.5417H158.789V7.62787C158.904 7.52357 159.047 7.45464 159.201 7.42933C159.434 7.36007 159.676 7.32488 159.919 7.32484C160.148 7.322 160.376 7.34655 160.599 7.39799C160.78 7.44223 160.95 7.52412 161.098 7.63832C161.237 7.75648 161.343 7.90898 161.405 8.08066C161.479 8.29203 161.514 8.51503 161.509 8.73896V14.5417H164.997V7.89606C165.043 7.16566 164.857 6.43933 164.466 5.82017Z" fill="white"/>
<path d="M21.3738 6.93124V7.8229C21.3738 8.70506 21.1998 9.57858 20.8617 10.3935C20.5236 11.2085 20.028 11.949 19.4033 12.5726C18.7786 13.1962 18.037 13.6908 17.2208 14.028C16.4047 14.3653 15.53 14.5387 14.6467 14.5382H9.2832L13.9039 9.92318L14.8943 8.93051L17.8725 5.95947L16.903 6.93124H21.3738Z" fill="white"/>
<path d="M11.9197 11.9051L9.28328 14.5383L7.30596 16.5132H2.66431L9.60062 9.58887L11.8848 11.8703L11.9197 11.9051Z" fill="#71B8FA"/>
<path d="M18.9851 3.4308C18.9871 4.16317 18.7523 4.8766 18.3155 5.46489C18.2024 5.61605 18.0777 5.75812 17.9424 5.88983C17.9214 5.91421 17.897 5.93511 17.8761 5.956L14.8979 8.92704L13.9075 9.91971L12.6242 11.198L11.9267 11.8946L11.8918 11.8598L9.60762 9.57837L0 0H15.5535C16.464 0.000923148 17.3368 0.362789 17.9802 1.00609C18.6237 1.64939 18.9851 2.5215 18.9851 3.4308Z" fill="#4DE8E8"/>
<path d="M24.3555 6.93141H16.9031L17.8726 5.95964L17.9423 5.88998L18.9676 4.87641C19.1853 4.6582 19.444 4.48507 19.7289 4.36693C20.0137 4.2488 20.3191 4.18799 20.6276 4.18799C20.936 4.18799 21.2414 4.2488 21.5262 4.36693C21.8111 4.48507 22.0698 4.6582 22.2875 4.87641L24.3555 6.93141Z" fill="#5E5CC2"/>
</g>
<defs>
<clipPath id="clip0">
<rect width="165" height="19" fill="white"/>
</clipPath>
</defs>
</svg>
