<svg width="146" height="146" viewBox="0 0 146 146" fill="none" xmlns="http://www.w3.org/2000/svg">
<path d="M51.6166 34.9574C70.4504 31.5723 96.0822 16.8407 112.82 39.7327C129.558 62.6247 127.179 82.0862 103.257 113.609C79.3354 145.131 33.4288 121.586 22.0822 86.1241C10.7356 50.6621 32.7829 38.3425 51.6166 34.9574Z" fill="#F3F4F6"/>
<path d="M89.1333 55.8398H56.8665C55.6515 55.8398 54.6665 56.8247 54.6665 58.0399V87.9599C54.6665 89.175 55.6513 90.16 56.8665 90.16H89.1332C90.3483 90.16 91.3332 89.1751 91.3332 87.9599V58.0399C91.3332 56.8247 90.3484 55.8398 89.1333 55.8398ZM86.9333 85.7599H59.0666V60.2398H86.9333V85.7599Z" fill="#5E5CC2"/>
<path d="M49.5334 59.5065C48.3182 59.5065 47.3334 60.4913 47.3334 61.7065V84.2932C47.3334 85.5084 48.3182 86.4932 49.5334 86.4932C50.7485 86.4932 51.7335 85.5084 51.7335 84.2932V61.7065C51.7333 60.4914 50.7485 59.5065 49.5334 59.5065Z" fill="#5E5CC2"/>
<path d="M42.2 63.1731C40.9848 63.1731 40 64.1579 40 65.3731V80.6265C40 81.8415 40.9848 82.8265 42.2 82.8265C43.4152 82.8265 44.4001 81.8417 44.4001 80.6265V65.3731C44.4 64.1579 43.4151 63.1731 42.2 63.1731Z" fill="#5E5CC2"/>
<path d="M96.4666 59.5065C95.2516 59.5065 94.2666 60.4913 94.2666 61.7065V84.2932C94.2666 85.5084 95.2514 86.4932 96.4666 86.4932C97.6818 86.4932 98.6667 85.5084 98.6667 84.2932V61.7065C98.6667 60.4914 97.6818 59.5065 96.4666 59.5065Z" fill="#5E5CC2"/>
<path d="M103.8 63.1731C102.585 63.1731 101.6 64.1579 101.6 65.3731V80.6265C101.6 81.8415 102.585 82.8265 103.8 82.8265C105.015 82.8265 106 81.8415 106 80.6263V65.3731C106 64.1579 105.015 63.1731 103.8 63.1731Z" fill="#5E5CC2"/>
</svg>
