<svg width="51" height="46" viewBox="0 0 51 46" fill="none" xmlns="http://www.w3.org/2000/svg">
<path d="M15.3198 46L16.5385 33.5041L6.09312 41.1405L0 30.3802L13.9271 25L0 19.6198L6.09312 8.8595L16.5385 16.4959L15.3198 4H27.6802L26.6356 16.4959L37.081 8.8595L43 19.6198L29.247 25L43 30.3802L37.081 41.1405L26.6356 33.5041L27.6802 46H15.3198Z" fill="white"/>
<path d="M23.3198 42L24.5385 29.5041L14.0931 37.1405L8 26.3802L21.9271 21L8 15.6198L14.0931 4.8595L24.5385 12.4959L23.3198 0H35.6802L34.6356 12.4959L45.081 4.8595L51 15.6198L37.247 21L51 26.3802L45.081 37.1405L34.6356 29.5041L35.6802 42H23.3198Z" fill="#4DE8E8"/>
</svg>
