<svg width="42" height="50" viewBox="0 0 42 50" fill="none" xmlns="http://www.w3.org/2000/svg">
<path d="M40.5273 25.0977H39.6465C39.6842 19.9624 36.4116 15.6601 31.9377 14.0566L33.3884 1.63487C33.4823 0.831262 32.907 0.103822 32.1034 0.0099749C31.2996 -0.0835796 30.5724 0.491517 30.4786 1.29493L29.0619 13.4255C28.374 13.3645 27.7053 13.3623 26.9927 13.4255L25.576 1.29493C25.4823 0.491419 24.7559 -0.0835796 23.9511 0.0099749C23.1475 0.103822 22.5723 0.831262 22.6662 1.63487L24.1168 14.0566C22.9874 14.4615 21.9383 15.0364 21.0005 15.7506C18.9857 14.2135 16.5323 13.379 13.9648 13.379C7.56893 13.379 2.29794 18.5916 2.3456 25.0977H1.46484C0.655858 25.0977 0 25.7536 0 26.5626V31.25C0 38.0243 5.13622 43.6207 11.7187 44.3518V48.5352C11.7187 49.3441 12.3746 50 13.1836 50H28.8085C29.6175 50 30.2734 49.3441 30.2734 48.5352V44.3518C36.8559 43.6207 41.9921 38.0243 41.9921 31.25V26.5626C41.9921 25.7535 41.3362 25.0977 40.5273 25.0977ZM28.0273 16.3087C32.8199 16.3087 36.7668 20.2218 36.7168 25.0977H33.3959C33.449 22.073 31.0067 19.629 28.0273 19.629C25.0498 19.629 22.6056 22.0711 22.6586 25.0977H19.3378C19.2879 20.2283 23.2278 16.3087 28.0273 16.3087ZM30.4662 25.0977H25.5884C25.5332 23.7055 26.6501 22.5587 28.0274 22.5587C29.4041 22.5587 30.5214 23.7051 30.4662 25.0977ZM13.9648 16.3087C15.7419 16.3087 17.4449 16.8449 18.8834 17.8357C18.1976 18.7091 17.634 19.6828 17.2187 20.7307C16.315 20.0404 15.1873 19.6291 13.9648 19.6291C10.9873 19.6291 8.54315 22.0712 8.59617 25.0978H5.27528C5.22538 20.2283 9.16531 16.3087 13.9648 16.3087ZM16.4038 25.0977H11.526C11.4708 23.7055 12.5877 22.5587 13.9649 22.5587C15.3417 22.5587 16.459 23.7051 16.4038 25.0977ZM27.3437 47.0703H14.6484V44.4336H27.3437V47.0703ZM39.0624 31.25C39.0624 36.904 34.4625 41.5039 28.8085 41.5039H13.1836C7.52957 41.5039 2.92968 36.904 2.92968 31.25V28.0274H39.0624V31.25Z" fill="#71B8FA"/>
</svg>
