<svg width="50" height="50" viewBox="0 0 50 50" fill="none" xmlns="http://www.w3.org/2000/svg">
<path d="M48.5352 47.0703H45.1071V19.3964C45.1071 19.1953 45.0657 18.9965 44.9855 18.8121L39.9643 7.26865C39.7317 6.73398 39.2041 6.38809 38.621 6.38809H36.3435V1.46484C36.3435 0.655859 35.6876 0 34.8786 0H29.1707C28.3617 0 27.7059 0.655859 27.7059 1.46484V6.38809H11.379C10.7959 6.38809 10.2683 6.73398 10.0357 7.26865L5.01445 18.8121C4.93428 18.9965 4.89287 19.1954 4.89287 19.3964V47.0703H1.46484C0.655859 47.0703 0 47.7262 0 48.5352C0 49.3441 0.655859 50 1.46484 50H48.5352C49.3441 50 50 49.3441 50 48.5352C50 47.7262 49.3441 47.0703 48.5352 47.0703ZM30.6355 2.92969H33.4138V6.38809H30.6355V2.92969ZM12.3393 9.31777H37.6608L41.4077 17.9315H8.59229L12.3393 9.31777ZM29.0187 47.0703V29.3787H35.3928V47.0703H29.0187ZM38.3225 47.0703V27.9139C38.3225 27.1049 37.6666 26.449 36.8576 26.449H27.5538C26.7448 26.449 26.089 27.1049 26.089 27.9139V47.0703H7.82256V20.8612H42.1774V47.0703H38.3225Z" fill="#5E5CC2"/>
<path d="M19.6559 26.449H13.1423C12.3333 26.449 11.6775 27.1048 11.6775 27.9138V35.7588C11.6775 36.5678 12.3333 37.2237 13.1423 37.2237H19.6559C20.4649 37.2237 21.1208 36.5678 21.1208 35.7588V27.9138C21.1208 27.1048 20.465 26.449 19.6559 26.449ZM18.1911 34.294H14.6072V29.3787H18.1911V34.294Z" fill="#5E5CC2"/>
</svg>
