<svg width="49" height="49" viewBox="0 0 49 49" fill="none" xmlns="http://www.w3.org/2000/svg">
<path d="M47.5142 46.129H46.0789V15.2309C47.8284 14.1804 49 12.2767 49 10.1069C48.9965 9.06586 48.7295 8.02365 48.1955 7.13046L45.0289 0.793762C44.7858 0.307303 44.2887 0 43.745 0H5.45589C4.92512 0 4.43769 0.292947 4.18852 0.761606L0.717559 7.29124C0.269168 8.15927 0.0112911 9.12434 0.015597 10.1068C0.015597 12.2489 1.1581 14.1309 2.87062 15.1893V46.1289H1.43531C0.642635 46.1289 0 46.7716 0 47.5645C0 48.3573 0.642635 49 1.43531 49H47.5142C48.3068 49 48.9495 48.3573 48.9495 47.5645C48.9495 46.7716 48.3068 46.129 47.5142 46.129ZM5.74123 23.4035H27.9854V40.3868H5.74123V23.4035ZM30.856 23.4035H43.2082V34.4313H42.195C41.4023 34.4313 40.7597 35.074 40.7597 35.8669C40.7597 36.6597 41.4023 37.3024 42.195 37.3024H43.2082V46.129H30.856V23.4035ZM3.24944 8.6575C3.27155 8.61634 6.31823 2.87119 6.31823 2.87119H42.8577L45.7242 8.60716C46.0038 9.05658 46.1271 9.57385 46.1294 10.1069C46.1294 11.8255 44.7046 13.2236 42.9533 13.2236C41.2021 13.2236 39.7773 11.8255 39.7773 10.1069C39.7773 9.31412 39.1346 8.67137 38.342 8.67137C37.5493 8.67137 36.9067 9.31412 36.9067 10.1069C36.9067 11.8255 35.4819 13.2236 33.7306 13.2236C31.9793 13.2236 30.5546 11.8255 30.5546 10.1069C30.5546 9.31412 29.9119 8.67137 29.1193 8.67137C28.3266 8.67137 27.6839 9.31412 27.6839 10.1069C27.6839 11.8255 26.2592 13.2236 24.5079 13.2236C22.7566 13.2236 21.3318 11.8255 21.3318 10.1069C21.3318 9.31412 20.6892 8.67137 19.8965 8.67137C19.1039 8.67137 18.4612 9.31412 18.4612 10.1069C18.4612 11.8255 17.0364 13.2236 15.2852 13.2236C13.5339 13.2236 12.1091 11.8255 12.1091 10.1069C12.1091 9.31412 11.4665 8.67137 10.6738 8.67137C9.88114 8.67137 9.23851 9.31412 9.23851 10.1069C9.23851 11.8255 7.81372 13.2236 6.06246 13.2236C4.31119 13.2236 2.88641 11.8255 2.88641 10.1069C2.88621 9.59424 3.00841 9.10663 3.24944 8.6575ZM6.06226 16.0947C7.90826 16.0947 9.56356 15.2713 10.6736 13.976C11.7837 15.2713 13.4391 16.0947 15.285 16.0947C17.1309 16.0947 18.7864 15.2713 19.8963 13.9759C21.0063 15.2713 22.6618 16.0947 24.5077 16.0947C26.3536 16.0947 28.009 15.2713 29.1191 13.976C30.2291 15.2713 31.8845 16.0947 33.7304 16.0947C35.5763 16.0947 37.2318 15.2713 38.3418 13.976C39.4518 15.2713 41.1071 16.0947 42.9531 16.0947C43.0386 16.0947 43.1234 16.0918 43.208 16.0883V20.5324H5.74123V16.0861C5.84754 16.0916 5.95452 16.0947 6.06226 16.0947ZM5.74123 43.2579H27.9854V46.129H5.74123V43.2579Z" fill="#71B8FA"/>
</svg>
