<svg width="48" height="50" viewBox="0 0 48 50" fill="none" xmlns="http://www.w3.org/2000/svg">
<path d="M47.8004 25C47.8004 19.3301 43.5588 14.6325 38.082 13.9128V1.46484C38.082 0.655859 37.4262 0 36.6172 0H10.3543C9.96572 0 9.59316 0.154395 9.31846 0.429102L0.429004 9.31973C0.154394 9.59443 0 9.96699 0 10.3555V48.5352C0 49.3441 0.655859 50 1.46484 50H36.6172C37.4262 50 38.082 49.3441 38.082 48.5352V36.0872C43.5588 35.3675 47.8004 30.6699 47.8004 25ZM8.88945 5.00166V8.88955H5.00215L8.88945 5.00166ZM2.92969 47.0703V11.8191H10.3543C11.1633 11.8191 11.8191 11.1633 11.8191 10.3543V2.92969H35.1523V13.9128C29.6757 14.6325 25.4341 19.33 25.4341 25C25.4341 30.67 29.6757 35.3675 35.1523 36.0872V47.0703H2.92969ZM36.6172 33.2535C32.0662 33.2535 28.3638 29.551 28.3638 25C28.3638 20.4492 32.0659 16.7469 36.6165 16.7466H36.6171C36.6171 16.7466 36.6175 16.7466 36.6177 16.7466C41.1685 16.747 44.8705 20.4493 44.8705 25C44.8707 29.551 41.1683 33.2535 36.6172 33.2535Z" fill="#4DE8E8"/>
<path d="M39.041 21.8005L35.7493 25.0922L34.1935 23.5364C33.6215 22.9644 32.694 22.9643 32.1219 23.5364C31.5499 24.1085 31.5499 25.0359 32.1219 25.608L34.7134 28.1995C34.9995 28.4855 35.3744 28.6285 35.7492 28.6285C36.124 28.6285 36.499 28.4855 36.7849 28.1994L41.1124 23.872C41.6844 23.2999 41.6844 22.3724 41.1124 21.8004C40.5405 21.2283 39.6129 21.2283 39.041 21.8005Z" fill="#4DE8E8"/>
<path d="M7.32129 17.6785H24.3369C25.1459 17.6785 25.8018 17.0226 25.8018 16.2136C25.8018 15.4046 25.1459 14.7488 24.3369 14.7488H7.32129C6.5123 14.7488 5.85645 15.4046 5.85645 16.2136C5.85645 17.0227 6.5123 17.6785 7.32129 17.6785Z" fill="#4DE8E8"/>
<path d="M21.407 20.6086H7.32129C6.5123 20.6086 5.85645 21.2645 5.85645 22.0735C5.85645 22.8825 6.5123 23.5383 7.32129 23.5383H21.407C22.216 23.5383 22.8719 22.8825 22.8719 22.0735C22.8719 21.2645 22.216 20.6086 21.407 20.6086Z" fill="#4DE8E8"/>
<path d="M30.7575 41.2104H24.4847C23.6758 41.2104 23.0199 41.8663 23.0199 42.6753C23.0199 43.4843 23.6758 44.1401 24.4847 44.1401H30.7575C31.5665 44.1401 32.2223 43.4843 32.2223 42.6753C32.2223 41.8663 31.5666 41.2104 30.7575 41.2104Z" fill="#4DE8E8"/>
<path d="M13.3809 33.7781C12.3539 33.4151 11.2209 32.9787 10.604 32.4949C10.5085 32.42 10.4378 32.1775 10.4946 31.8754C10.5229 31.7251 10.6539 31.2232 11.1493 31.0739C12.099 30.7876 12.7416 31.1603 12.9737 31.3337C13.6216 31.8181 14.5396 31.6855 15.024 31.0376C15.5084 30.3897 15.3759 29.4717 14.7279 28.9874C14.4974 28.8151 13.96 28.4606 13.1921 28.2377V27.9827C13.1921 27.1737 12.5362 26.5178 11.7272 26.5178C10.9182 26.5178 10.2624 27.1737 10.2624 27.9827V28.2831C8.90311 28.71 7.89051 29.8739 7.61561 31.3329C7.35829 32.6986 7.81053 34.0272 8.79588 34.8001C9.74373 35.5434 11.0904 36.0757 12.4045 36.5403C13.2809 36.85 13.3695 37.4824 13.2894 37.9583C13.1771 38.6264 12.6149 39.3484 11.646 39.3549C10.5655 39.3621 10.2833 39.3178 9.48026 38.7924C8.8033 38.3496 7.8953 38.5394 7.45252 39.2164C7.00965 39.8934 7.1995 40.8012 7.87645 41.2441C8.78397 41.8377 9.46854 42.1036 10.2622 42.214V42.4654C10.2622 43.2744 10.9181 43.9302 11.727 43.9302C12.536 43.9302 13.1919 43.2744 13.1919 42.4654V42.0224C14.8624 41.4309 15.9291 39.9276 16.1785 38.4439C16.5277 36.3681 15.4034 34.493 13.3809 33.7781Z" fill="#4DE8E8"/>
</svg>
