<svg width="52" height="36" viewBox="0 0 52 36" fill="none" xmlns="http://www.w3.org/2000/svg">
<path d="M49.2578 4.78735H45.2068V2.74219C45.2068 1.23013 43.9767 0 42.4646 0H34.6267C33.1147 0 31.8845 1.23013 31.8845 2.74219V11.7927H20.1155V2.74219C20.1155 1.23013 18.8853 0 17.3733 0H9.5354C8.02334 0 6.79321 1.23013 6.79321 2.74219V4.78735H2.74219C1.23013 4.78735 0 6.01748 0 7.52954V27.9781C0 29.4902 1.23013 30.7203 2.74219 30.7203H6.79321V32.7656C6.79321 34.2777 8.02334 35.5078 9.5354 35.5078H17.3733C18.8853 35.5078 20.1155 34.2777 20.1155 32.7656V23.715H31.8845V32.7656C31.8845 34.2777 33.1147 35.5078 34.6267 35.5078H42.4646C43.9767 35.5078 45.2068 34.2777 45.2068 32.7656V30.7203H49.2578C50.7699 30.7203 52 29.4902 52 27.9781V7.52954C52 6.01748 50.7699 4.78735 49.2578 4.78735ZM3.04688 27.6734V7.83423H6.79321V27.6734H3.04688ZM17.0686 32.4608H9.84009V3.04688H17.0686V32.4608ZM20.1155 20.6681V14.8395H31.8845V20.6681H20.1155ZM42.1599 32.4608H34.9314V3.04688H42.1599V32.4608ZM48.9531 27.6734H45.2068V7.83423H48.9531V27.6734Z" fill="#71B8FA"/>
</svg>
