<svg width="47" height="50" viewBox="0 0 47 50" fill="none" xmlns="http://www.w3.org/2000/svg">
<path d="M45.539 47.0703H41.6847V1.46484C41.6847 0.655859 41.0306 0 40.2238 0H6.77599C5.96917 0 5.31506 0.655859 5.31506 1.46484V47.0703H1.46093C0.654107 47.0703 0 47.7262 0 48.5352C0 49.3441 0.654107 50 1.46093 50H45.5391C46.3459 50 47 49.3441 47 48.5352C47 47.7262 46.3459 47.0703 45.539 47.0703ZM18.52 47.0703V37.0839H28.4798V47.0703H18.52ZM31.4016 47.0703V35.619C31.4016 34.8101 30.7475 34.1542 29.9407 34.1542H17.0591C16.2523 34.1542 15.5982 34.8101 15.5982 35.619V47.0703H8.23692V2.92969H38.7629V47.0703H31.4016Z" fill="#4DE8E8"/>
<path d="M20.3588 6.47534H13.1995C12.3926 6.47534 11.7385 7.1312 11.7385 7.94019V15.1187C11.7385 15.9277 12.3926 16.5835 13.1995 16.5835H20.3588C21.1656 16.5835 21.8197 15.9277 21.8197 15.1187V7.94019C21.8197 7.1312 21.1656 6.47534 20.3588 6.47534ZM18.8979 13.6539H14.6604V9.40503H18.8979V13.6539Z" fill="#4DE8E8"/>
<path d="M33.8004 6.47534H26.6411C25.8343 6.47534 25.1802 7.1312 25.1802 7.94019V15.1187C25.1802 15.9277 25.8343 16.5835 26.6411 16.5835H33.8004C34.6073 16.5835 35.2614 15.9277 35.2614 15.1187V7.94019C35.2614 7.1312 34.6073 6.47534 33.8004 6.47534ZM32.3395 13.6539H28.102V9.40503H32.3395V13.6539Z" fill="#4DE8E8"/>
<path d="M20.3588 20.1128H13.1995C12.3926 20.1128 11.7385 20.7687 11.7385 21.5776V28.7562C11.7385 29.5651 12.3926 30.221 13.1995 30.221H20.3588C21.1656 30.221 21.8197 29.5651 21.8197 28.7562V21.5776C21.8197 20.7687 21.1656 20.1128 20.3588 20.1128ZM18.8979 27.2913H14.6604V23.0425H18.8979V27.2913Z" fill="#4DE8E8"/>
<path d="M33.8004 20.1128H26.6411C25.8343 20.1128 25.1802 20.7687 25.1802 21.5776V28.7562C25.1802 29.5651 25.8343 30.221 26.6411 30.221H33.8004C34.6073 30.221 35.2614 29.5651 35.2614 28.7562V21.5776C35.2614 20.7687 34.6073 20.1128 33.8004 20.1128ZM32.3395 27.2913H28.102V23.0425H32.3395V27.2913Z" fill="#4DE8E8"/>
</svg>
