<svg width="50" height="50" viewBox="0 0 50 50" fill="none" xmlns="http://www.w3.org/2000/svg">
<path d="M49.9932 10.0126C49.9928 9.28633 49.4598 8.66992 48.7406 8.56416L27.1798 5.39277C24.3432 2.09355 20.1393 0 15.455 0C6.93309 0 0 6.92715 0 15.4417C0 21.7455 3.80062 27.1782 9.23223 29.5749V45.1239C9.23223 47.8126 11.4214 50 14.1125 50H16.7976C19.4886 50 21.6779 47.8126 21.6779 45.1239V29.5749C23.2029 28.902 24.5996 27.9903 25.8195 26.8865L48.7468 23.5246C49.4668 23.419 50.0004 22.8017 50 22.0745L49.9932 10.0126ZM2.9322 15.4417C2.9322 8.54258 8.54991 2.92969 15.455 2.92969C22.36 2.92969 27.9778 8.54258 27.9778 15.4417C27.9778 22.3408 22.36 27.9538 15.455 27.9538C8.54991 27.9538 2.9322 22.3409 2.9322 15.4417ZM18.7456 45.1239C18.7456 46.1972 17.8718 47.0703 16.7975 47.0703H14.1124C13.0382 47.0703 12.1643 46.1972 12.1643 45.1239V30.53C13.2251 30.7607 14.3259 30.8835 15.4549 30.8835C16.5839 30.8835 17.6846 30.7607 18.7455 30.53V45.1239H18.7456ZM28.6247 23.5142C30.0732 21.1638 30.9101 18.3987 30.9101 15.4417C30.9101 13.0149 30.3461 10.7175 29.3435 8.67227L47.0617 11.2785L47.0671 20.8099L28.6247 23.5142Z" fill="#4DE8E8"/>
<path d="M22.4264 15.4417C22.4264 11.601 19.299 8.47632 15.455 8.47632C11.6109 8.47632 8.48364 11.601 8.48364 15.4417C8.48364 19.2826 11.6109 22.4072 15.455 22.4072C19.299 22.4072 22.4264 19.2826 22.4264 15.4417ZM11.4158 15.4417C11.4158 13.2165 13.2277 11.406 15.455 11.406C17.6822 11.406 19.4942 13.2165 19.4942 15.4417C19.4942 17.667 17.6822 19.4775 15.455 19.4775C13.2277 19.4775 11.4158 17.667 11.4158 15.4417Z" fill="#4DE8E8"/>
</svg>
