<svg width="50" height="50" viewBox="0 0 50 50" fill="none" xmlns="http://www.w3.org/2000/svg">
<path d="M43.1373 11.8508V4.39453C43.1373 1.97139 41.1581 0 38.7255 0C36.5201 0 34.6876 1.62012 34.3644 3.72822C28.9975 8.88437 21.959 11.7188 14.4825 11.7188H4.41176C1.97912 11.7188 0 13.6901 0 16.1133V23.9258C0 26.3489 1.97912 28.3203 4.41176 28.3203H5.88235V45.6055C5.88235 48.0286 7.86147 50 10.2941 50H13.2353C14.0475 50 14.7059 49.3441 14.7059 48.5352V36.1328H16.1765C18.6091 36.1328 20.5882 34.1614 20.5882 31.7383V28.9677C25.7425 30.0764 30.4892 32.5878 34.3644 36.3108C34.6876 38.4189 36.5201 40.0391 38.7255 40.0391C41.1581 40.0391 43.1373 38.0677 43.1373 35.6445V28.1883C47.0329 27.4941 50 24.0966 50 20.0195C50 15.9425 47.0329 12.545 43.1373 11.8508ZM11.7647 47.0703H10.2941C9.48324 47.0703 8.82353 46.4132 8.82353 45.6055V28.3203H11.7647V47.0703ZM11.7647 25.3906H4.41176C3.60088 25.3906 2.94118 24.7335 2.94118 23.9258V16.1133C2.94118 15.3056 3.60088 14.6484 4.41176 14.6484H5.88235V19.043C5.88235 19.852 6.54078 20.5078 7.35294 20.5078C8.1651 20.5078 8.82353 19.852 8.82353 19.043V14.6484H11.7647V25.3906ZM17.6471 31.7383C17.6471 32.546 16.9874 33.2031 16.1765 33.2031H14.7059V28.323C15.6952 28.3306 16.6764 28.3879 17.6471 28.4935V31.7383ZM34.3137 32.3623C31.9725 30.4794 29.381 28.9446 26.5737 27.7863C22.7897 26.2251 18.798 25.4197 14.7059 25.3914V14.6477C18.7979 14.6193 22.7897 13.814 26.5737 12.2527C29.381 11.0944 31.9725 9.55977 34.3137 7.67676V32.3623ZM40.1961 35.6445C40.1961 36.4522 39.5364 37.1094 38.7255 37.1094C37.9146 37.1094 37.2549 36.4522 37.2549 35.6445V4.39453C37.2549 3.58682 37.9146 2.92969 38.7255 2.92969C39.5364 2.92969 40.1961 3.58682 40.1961 4.39453V35.6445ZM43.1373 25.1859V14.8531C45.3977 15.4925 47.0588 17.5657 47.0588 20.0195C47.0588 22.4733 45.3977 24.5465 43.1373 25.1859Z" fill="#4DE8E8"/>
</svg>
