<svg width="50" height="46" viewBox="0 0 50 46" fill="none" xmlns="http://www.w3.org/2000/svg">
<path d="M10.1542 32.351H40.5599C42.6202 32.351 44.436 30.9895 44.9755 29.0402L49.8376 11.4743C50.2139 10.115 49.9291 8.69361 49.0563 7.57487C48.1835 6.45604 46.8589 5.81444 45.4221 5.81444H9.1467L8.91819 3.48593C8.72308 1.4986 7.0402 0 5.00372 0H1.46482C0.655847 0 0 0.642943 0 1.436C0 2.22905 0.655847 2.87199 1.46482 2.87199H5.00362C5.52304 2.87199 5.95223 3.25425 6.00194 3.76106L8.51185 29.754C6.58044 30.4201 5.1918 32.2255 5.1918 34.3437C5.1918 37.0262 7.41793 39.2084 10.1541 39.2084H12.5346C12.2621 39.8079 12.1093 40.4708 12.1093 41.1683C12.1093 43.8325 14.3204 46 17.0382 46C19.7559 46 21.9669 43.8325 21.9669 41.1683C21.9669 40.4708 21.8141 39.8079 21.5416 39.2084H32.9403C32.6678 39.8079 32.515 40.4708 32.515 41.1683C32.515 43.8325 34.726 46 37.4437 46C40.1615 46 42.3726 43.8325 42.3726 41.1683C42.3726 40.4708 42.2198 39.8079 41.9473 39.2084H46.3509C47.1599 39.2084 47.8157 38.5655 47.8157 37.7724C47.8157 36.9794 47.1599 36.3364 46.3509 36.3364H10.1542C9.03333 36.3364 8.12153 35.4426 8.12153 34.3437C8.12153 33.2449 9.03333 32.351 10.1542 32.351ZM19.0373 41.1682C19.0373 42.2488 18.1406 43.1279 17.0383 43.1279C15.9359 43.1279 15.0391 42.2488 15.0391 41.1682C15.0391 40.0875 15.9359 39.2083 17.0383 39.2083C18.1406 39.2083 19.0373 40.0875 19.0373 41.1682ZM39.4429 41.1682C39.4429 42.2488 38.5461 43.1279 37.4437 43.1279C36.3414 43.1279 35.4447 42.2488 35.4447 41.1682C35.4447 40.0875 36.3414 39.2083 37.4437 39.2083C38.5461 39.2083 39.4429 40.0875 39.4429 41.1682ZM40.5599 29.479H14.0543H11.4281L10.9653 24.4629H43.207L42.1482 28.2881C41.9541 28.9893 41.301 29.479 40.5599 29.479ZM44.0019 21.5908H10.7004L10.2376 16.5746H45.3905L44.0019 21.5908ZM45.422 8.68643C45.9388 8.68643 46.4152 8.91724 46.7292 9.31961C47.0432 9.72198 47.1456 10.2332 47.0103 10.7222L46.1853 13.7027H9.97257L9.50978 8.68643H45.422Z" fill="#5E5CC2"/>
</svg>
