<svg width="50" height="44" viewBox="0 0 50 44" fill="none" xmlns="http://www.w3.org/2000/svg">
<path d="M47.8986 18.229C47.8463 18.1835 47.7908 18.1418 47.7325 18.1043L42.2165 14.5462L35.4677 4.58368C33.5234 1.71357 30.293 0 26.8263 0H9.29969C8.81785 0 8.36678 0.237012 8.09344 0.63369L1.28418 10.517C1.26494 10.5449 1.24668 10.5735 1.22939 10.6027C0.425195 11.9632 0 13.5178 0 15.0986V30.6459C0 33.9302 2.67187 36.6021 5.95614 36.6021H6.30468C6.99374 40.2605 10.2109 43.0373 14.0665 43.0373C17.922 43.0373 21.1392 40.2604 21.8283 36.6021H28.1717C28.8608 40.2605 32.078 43.0373 35.9335 43.0373C39.7891 43.0373 43.0064 40.2604 43.6953 36.6021H45.9153C48.1676 36.6021 50 34.7698 50 32.5175V22.8348C49.9999 21.0667 49.2341 19.3881 47.8986 18.229ZM33.0421 6.22684L38.4097 14.1504H19.6816C19.0699 14.1504 18.5046 13.8728 18.1304 13.3888C17.7563 12.905 17.63 12.288 17.7841 11.696L20.0649 2.92968H26.8263C29.3199 2.92968 31.6436 4.1623 33.0421 6.22684ZM3.72714 12.1349L4.98466 10.3098C5.9327 11.0327 6.50341 12.1553 6.50341 13.3593V16.3485C6.50341 18.3758 4.92294 20.04 2.92968 20.1761V15.0986C2.92968 14.0581 3.20527 13.0344 3.72714 12.1349ZM14.0665 40.1077C11.3258 40.1077 9.09608 37.8781 9.09608 35.1373C9.09608 32.3966 11.3259 30.1669 14.0665 30.1669C16.8071 30.1669 19.0369 32.3966 19.0369 35.1373C19.0369 37.8781 16.8071 40.1077 14.0665 40.1077ZM35.9334 40.1077C33.1927 40.1077 30.963 37.8781 30.963 35.1373C30.963 32.3966 33.1928 30.1669 35.9334 30.1669C38.6741 30.1669 40.9039 32.3966 40.9039 35.1373C40.9039 37.8781 38.6741 40.1077 35.9334 40.1077ZM45.9152 33.6724H43.6952C43.0062 30.014 39.789 27.2372 35.9334 27.2372C32.0779 27.2372 28.8607 30.0141 28.1716 33.6724H21.8282C21.1391 30.014 17.9219 27.2372 14.0664 27.2372C10.2108 27.2372 6.99364 30.0141 6.30458 33.6724H5.95604C4.28739 33.6724 2.92968 32.3148 2.92968 30.6459V23.1092C6.53925 22.9699 9.43309 19.9916 9.43309 16.3485V13.3593C9.43309 11.1854 8.38465 9.16238 6.64852 7.89481L10.0693 2.92978H17.0376L14.9488 10.9583C14.5646 12.4347 14.8795 13.9738 15.8126 15.1808C16.7458 16.3878 18.1559 17.08 19.6816 17.08H40.7399L46.0487 20.5045C46.6991 21.1037 47.0702 21.9475 47.0702 22.8347V22.8864H44.5173C43.7083 22.8864 43.0525 23.5422 43.0525 24.3512C43.0525 25.1602 43.7083 25.8161 44.5173 25.8161H47.0702V32.5174C47.0702 33.1542 46.5522 33.6724 45.9152 33.6724Z" fill="#5E5CC2"/>
<path d="M21.3609 20.3914H16.7723C15.9634 20.3914 15.3075 21.0472 15.3075 21.8562C15.3075 22.6652 15.9634 23.321 16.7723 23.321H21.3609C22.1699 23.321 22.8257 22.6652 22.8257 21.8562C22.8257 21.0472 22.1699 20.3914 21.3609 20.3914Z" fill="#5E5CC2"/>
</svg>
