<svg width="146" height="146" viewBox="0 0 146 146" fill="none" xmlns="http://www.w3.org/2000/svg">
<path d="M36.9182 48.3592C31.8896 66.8221 14.9606 91.0589 36.2917 109.745C57.6227 128.432 77.2181 127.774 110.722 106.717C144.227 85.6611 124.811 37.8614 90.4843 23.4396C56.1577 9.0179 41.9467 29.8962 36.9182 48.3592Z" fill="#F3F4F6"/>
<path d="M101.438 47.8436H52.0385C50.9125 47.8436 50 48.7563 50 49.8822V88.1382C50 89.2641 50.9125 90.1767 52.0385 90.1767H78.675V86.0996H54.077V51.9207H99.3997V70.8109H103.477V49.8822C103.477 48.7563 102.564 47.8436 101.438 47.8436Z" fill="#5E5CC2"/>
<path d="M94.1676 43.7666C93.0417 43.7666 92.1292 44.6791 92.1292 45.8051V53.1437C92.1292 54.2696 93.0417 55.1822 94.1676 55.1822C95.2936 55.1822 96.2061 54.2696 96.2061 53.1437V45.8051C96.2061 44.6791 95.2936 43.7666 94.1676 43.7666Z" fill="#5E5CC2"/>
<path d="M59.3091 43.7666C58.1832 43.7666 57.2706 44.6791 57.2706 45.8051V53.1437C57.2706 54.2696 58.1832 55.1822 59.3091 55.1822C60.435 55.1822 61.3476 54.2696 61.3476 53.1437V45.8051C61.3476 44.6791 60.435 43.7666 59.3091 43.7666Z" fill="#5E5CC2"/>
<path d="M73.1711 60.6862H70.7929C69.6669 60.6862 68.7544 61.5987 68.7544 62.7246C68.7544 63.8506 69.6669 64.7631 70.7929 64.7631H73.1711C74.297 64.7631 75.2096 63.8506 75.2096 62.7246C75.2096 61.5987 74.297 60.6862 73.1711 60.6862Z" fill="#5E5CC2"/>
<path d="M63.658 60.6862H61.2798C60.1539 60.6862 59.2413 61.5987 59.2413 62.7246C59.2413 63.8506 60.1539 64.7631 61.2798 64.7631H63.658C64.784 64.7631 65.6965 63.8506 65.6965 62.7246C65.6965 61.5987 64.784 60.6862 63.658 60.6862Z" fill="#5E5CC2"/>
<path d="M82.684 60.6862H80.3058C79.1799 60.6862 78.2673 61.5987 78.2673 62.7246C78.2673 63.8506 79.1799 64.7631 80.3058 64.7631H82.684C83.81 64.7631 84.7225 63.8506 84.7225 62.7246C84.7225 61.5987 83.81 60.6862 82.684 60.6862Z" fill="#5E5CC2"/>
<path d="M92.1971 60.6862H89.8189C88.6929 60.6862 87.7804 61.5987 87.7804 62.7246C87.7804 63.8506 88.6929 64.7631 89.8189 64.7631H92.1971C93.323 64.7631 94.2355 63.8506 94.2355 62.7246C94.2355 61.5987 93.323 60.6862 92.1971 60.6862Z" fill="#5E5CC2"/>
<path d="M73.1711 68.6365H70.7929C69.6669 68.6365 68.7544 69.549 68.7544 70.675C68.7544 71.8009 69.6669 72.7134 70.7929 72.7134H73.1711C74.297 72.7134 75.2096 71.8009 75.2096 70.675C75.2096 69.549 74.297 68.6365 73.1711 68.6365Z" fill="#5E5CC2"/>
<path d="M63.658 68.6365H61.2798C60.1539 68.6365 59.2413 69.549 59.2413 70.675C59.2413 71.8009 60.1539 72.7134 61.2798 72.7134H63.658C64.784 72.7134 65.6965 71.8009 65.6965 70.675C65.6965 69.549 64.784 68.6365 63.658 68.6365Z" fill="#5E5CC2"/>
<path d="M82.684 68.6365H80.3058C79.1799 68.6365 78.2673 69.549 78.2673 70.675C78.2673 71.8009 79.1799 72.7134 80.3058 72.7134H82.684C83.81 72.7134 84.7225 71.8009 84.7225 70.675C84.7225 69.549 83.81 68.6365 82.684 68.6365Z" fill="#5E5CC2"/>
<path d="M73.1711 76.5186H70.7929C69.6669 76.5186 68.7544 77.4311 68.7544 78.557C68.7544 79.683 69.6669 80.5955 70.7929 80.5955H73.1711C74.297 80.5955 75.2096 79.683 75.2096 78.557C75.2096 77.4312 74.297 76.5186 73.1711 76.5186Z" fill="#5E5CC2"/>
<path d="M63.658 76.5186H61.2798C60.1539 76.5186 59.2413 77.4311 59.2413 78.557C59.2413 79.683 60.1539 80.5955 61.2798 80.5955H63.658C64.784 80.5955 65.6965 79.683 65.6965 78.557C65.6965 77.4312 64.784 76.5186 63.658 76.5186Z" fill="#5E5CC2"/>
<path d="M92.8766 65.9871C83.4342 65.9871 75.7532 73.6681 75.7532 83.1105C75.7532 92.5515 83.4342 100.233 92.8766 100.233C102.318 100.233 110 92.5515 110 83.1105C110 73.6688 102.319 65.9871 92.8766 65.9871ZM92.8766 96.1563C85.6827 96.1563 79.8301 90.3037 79.8301 83.1098C79.8301 75.9159 85.6827 70.0633 92.8766 70.0633C100.071 70.0633 105.923 75.9159 105.923 83.1098C105.923 90.3037 100.071 96.1563 92.8766 96.1563Z" fill="#5E5CC2"/>
<path d="M98.4485 82.2945H94.1677V75.9751C94.1677 74.8492 93.2551 73.9366 92.1292 73.9366C91.0032 73.9366 90.0907 74.8492 90.0907 75.9751V84.3329C90.0907 85.4589 91.0032 86.3714 92.1292 86.3714H98.4485C99.5745 86.3714 100.487 85.4589 100.487 84.3329C100.487 83.207 99.5745 82.2945 98.4485 82.2945Z" fill="#5E5CC2"/>
</svg>
