<svg width="200" height="181" viewBox="0 0 200 181" fill="none" xmlns="http://www.w3.org/2000/svg">
<path d="M171.128 107.004L128.675 33.4979L43.7795 33.4933L86.2275 107.004H171.128Z" fill="white"/>
<path d="M43.7795 180.509L128.675 180.505L171.128 106.999H86.2275L43.7795 180.509Z" fill="#1C2B45"/>
<path d="M126.847 103.836H41.9422L40.9724 102.152H125.878L126.847 103.836ZM122.941 97.068H38.0355L39.0099 98.7518H123.915L122.941 97.068ZM120.009 91.9657H35.1034L36.073 93.6495H120.978L120.009 91.9657ZM117.076 86.8634H32.1711L33.1454 88.5518H118.051L117.076 86.8634ZM114.144 81.789H29.2388L30.2132 83.4774H115.118L114.144 81.789ZM111.207 76.6866H26.302L27.2762 78.3751H112.181L111.207 76.6866ZM108.275 71.6122H23.3697L24.344 73.3006H109.249L108.275 71.6122ZM105.343 66.5099H20.4374L21.4117 68.1983H106.317L105.343 66.5099ZM102.41 61.4308H17.5052L18.4795 63.1145H103.385L102.41 61.4308ZM99.4782 56.3516H14.5729L15.5473 58.04H100.452L99.4782 56.3516ZM96.5413 51.2493H11.6361L12.6104 52.9331H97.5157L96.5413 51.2493ZM93.609 46.1702H8.70385L9.67816 47.8586H94.5834L93.609 46.1702ZM90.6768 41.0911H5.77158L6.74124 42.7749H91.6465L90.6768 41.0911ZM87.7446 36.012H2.83936L3.81367 37.7004H88.7188L87.7446 36.012Z" fill="#1C2B45"/>
<path d="M232 0.5H147.095L146.12 2.18376H231.026L232 0.5ZM229.068 5.6023H144.162L143.188 7.28607H228.093L229.068 5.6023ZM226.135 10.6768H141.23L140.256 12.3605H225.161L226.135 10.6768ZM223.203 15.7559H138.298L137.324 17.4443H222.229L223.203 15.7559ZM220.271 20.835H135.366L134.391 22.5234H219.297L220.271 20.835ZM217.334 25.9141H132.429L131.454 27.6025H216.36L217.334 25.9141ZM214.402 31.0164H129.497L128.527 32.7048H213.432L214.402 31.0164Z" fill="#5E5CC2"/>
<path d="M3.89724 173.139H88.8025L87.8281 174.827H2.92293L3.89724 173.139ZM5.85521 169.743H90.7604L91.7347 168.055H6.82952L5.85521 169.743ZM0.974311 178.297H85.8795L84.9052 179.98H0L0.974311 178.297ZM8.79207 164.669H93.6973L94.6716 162.985H9.76639L8.79207 164.669ZM11.7243 159.567H96.6295L97.6039 157.883H12.6987L11.7243 159.567ZM14.6519 154.497H99.5571L100.532 152.813H15.6262L14.6519 154.497ZM17.5841 149.418H102.489L103.464 147.734H18.5585L17.5841 149.418ZM20.5164 144.315H105.422L106.396 142.627H21.4907L20.5164 144.315ZM23.4486 139.213H108.354L109.328 137.529H24.423L23.4486 139.213ZM26.3809 134.134H111.286L112.256 132.446H27.3506L26.3809 134.134ZM29.3178 129.032H114.223L115.197 127.343H30.2921L29.3178 129.032ZM32.25 123.953H117.155L118.13 122.264H33.2104L32.25 123.953ZM35.1823 118.85H120.087L121.062 117.166H36.1567L35.1823 118.85ZM38.1146 113.748H123.02L123.994 112.064H39.0888L38.1146 113.748ZM41.0467 108.669H125.952L126.926 106.985H42.0257L41.0467 108.669Z" fill="#5E5CC2"/>
</svg>
