<svg width="224" height="101" viewBox="0 0 224 101" fill="none" xmlns="http://www.w3.org/2000/svg">
<path d="M183.21 29.37L142.006 -42H59.5928L100.797 29.3745L183.21 29.37Z" fill="white"/>
<path d="M59.5928 100.74H142.006L183.215 29.37H100.802L59.5928 100.74Z" fill="#4DE8E8"/>
<path d="M143.834 26.2848H61.4168L60.471 24.65H142.889L143.834 26.2848ZM140.042 19.714H57.6247L58.5705 21.3488H140.988L140.042 19.714ZM137.196 14.7824H54.7784L55.7241 16.4218H138.142L137.196 14.7824ZM134.345 9.82837H51.9591L52.9048 11.4677H135.322L134.345 9.82837ZM131.499 4.90134H49.0812L50.027 6.54066H132.445L131.499 4.90134ZM128.652 -0.0527229H46.2349L47.1807 1.5866H129.598L128.652 -0.0527229ZM125.82 -4.93023H43.4021L44.3478 -3.29087H126.765L125.82 -4.93023ZM122.973 -9.88428H40.5557L41.5015 -8.24944H123.919L122.973 -9.88428ZM120.127 -14.8383H37.7094L38.6552 -13.2035H121.073L120.127 -14.8383ZM117.263 -19.7248H34.845L35.7908 -18.09H118.208L117.263 -19.7248ZM114.416 -24.6789H31.9987L32.9445 -23.0396H115.362L114.416 -24.6789ZM111.57 -29.6104H29.1524L30.0982 -27.9711H112.516L111.57 -29.6104ZM108.724 -34.5645H26.3061L27.2518 -32.9251H109.669L108.724 -34.5645ZM105.877 -39.5186H23.4597L24.4055 -37.8792H106.823L105.877 -39.5186Z" fill="#4DE8E8"/>
<path d="M104.549 96.7993H186.966L186.021 98.4386H103.603L104.549 96.7993ZM106.454 93.5026H188.871L189.817 91.8632H107.4L106.454 93.5026ZM109.3 88.5485H191.718L192.663 86.9137H110.246L109.3 88.5485ZM112.147 83.617H194.564L195.51 81.9821H113.092L112.147 83.617ZM115.011 78.7124H197.428L198.374 77.0776H115.957L115.011 78.7124ZM117.857 73.7809H200.275L201.22 72.1461H118.803L117.857 73.7809ZM120.708 68.8269H203.126L204.071 67.1875H121.654L120.708 68.8269ZM123.554 63.8728H205.972L206.913 62.238H124.469L123.554 63.8728ZM126.401 58.9413H208.818L209.759 57.3019H127.342L126.401 58.9413ZM129.247 53.9872H211.665L212.61 52.3478H130.193L129.247 53.9872ZM132.093 49.0557H214.511L215.457 47.4163H133.026L132.093 49.0557ZM134.94 44.1016H217.357L218.303 42.4668H135.885L134.94 44.1016ZM137.786 39.1475H220.204L221.149 37.5127H138.732L137.786 39.1475ZM140.637 34.216H223.054L224 32.5811H141.583L140.637 34.216Z" fill="#5E5CC2"/>
<path d="M100.437 29.7213H18.0193L17.0735 31.3561H99.491L100.437 29.7213ZM97.5904 34.6753H15.1729L14.2272 36.3147H96.6447L97.5904 34.6753ZM94.7441 39.5843H12.3266L11.3808 41.2237H93.7983L94.7441 39.5843ZM91.8978 44.5384H9.48026L8.53448 46.1777H90.952L91.8978 44.5384ZM89.0514 49.4699H6.63393L5.68816 51.1048H88.1057L89.0514 49.4699ZM86.1871 54.3744H3.76959L2.86885 56.0093H85.2864L86.1871 54.3744ZM83.3408 59.3285H0.923251L0 60.9633H82.4175L83.3408 59.3285Z" fill="#71B8FA"/>
</svg>
