<svg width="291" height="401" viewBox="0 0 291 401" fill="none" xmlns="http://www.w3.org/2000/svg">
<path d="M290.06 200.47L174.322 0H-57.1667L58.5713 200.483L290.06 200.47Z" fill="#1C2B45"/>
<path d="M-57.1667 400.94H174.309L290.06 200.47H58.5713L-57.1667 400.94Z" fill="#4DE8E8"/>
<path d="M-126.035 400.94L-10.2846 200.47H-4.9715L-120.722 400.94H-126.035ZM-104.745 400.94L11.0186 200.47H5.70531L-110.045 400.94H-104.745ZM-142 400.94L-26.2493 200.47H-20.9362L-136.687 400.94H-142ZM-88.742 400.94L27.0086 200.47H21.6954L-94.0552 400.94H-88.742ZM-72.7394 400.94L42.9986 200.47H37.6854L-78.0525 400.94H-72.7394ZM-56.762 400.94L59.0012 200.47H53.6755L-62.0625 400.94H-56.762ZM-40.7593 400.94L74.9913 200.47H69.6655L-46.0851 400.94H-40.7593ZM-24.7693 400.94L90.9813 200.47H85.6682L-30.0824 400.94H-24.7693ZM-8.77927 400.94L106.971 200.47H101.658L-14.0923 400.94H-8.77927ZM7.22345 400.94L122.961 200.47H117.661L1.91022 400.94H7.22345ZM23.2135 400.94L138.964 200.47H133.651L17.9003 400.94H23.2135ZM39.2036 400.94L154.954 200.47H149.641L33.8903 400.94H39.2036ZM55.1936 400.94L170.944 200.47H165.631L49.893 400.94H55.1936ZM71.1962 400.94L186.934 200.47H181.634L65.8704 400.94H71.1962ZM87.1862 400.94L202.937 200.47H197.624L81.8731 400.94H87.1862Z" fill="white"/>
</svg>
